:version 1.10
:name ASF
:units
  mass 1
  length 1
  angle deg
:documentation
  ASF file generated by Kaydara
:root
  axis xyz
  order  tx ty tz rx ry rz
  position 0 0 0
  orientation 0 0 0
:bonedata
  begin
    id 1
    name lfemurDummy
    direction 0.61522 -0.761478 0.204097
    length 5.68318
    axis 0 -0 0 xyz
  end
  begin
    id 2
    name lfemur
    direction 0.34202 -0.939693 -5.84747e-008
    length 16.9147
    axis 0 -0 20 xyz
    dof rx ry rz
    limits( -inf , inf )
( -inf , inf )
( -inf , inf )

  end
  begin
    id 3
    name ltibia
    direction 0.34202 -0.939693 1.20839e-009
    length 18.0532
    axis 0 -0 20 xyz
    dof rz ry rx
    limits( -inf , inf )
( -inf , inf )
( -inf , inf )

  end
  begin
    id 4
    name lfoot
    direction 0.0841971 -0.23133 0.969225
    length 5.23822
    axis -90 7.62852e-016 20 xyz
    dof ry rx rz
    limits( -inf , inf )
( -inf , inf )
( -inf , inf )

  end
  begin
    id 5
    name ltoes
    direction 0 0 0
    length 0
    axis 0 0 0 xyz
    dof rz ry rx
    limits( -inf , inf )
( -inf , inf )
( -inf , inf )

  end
  begin
    id 6
    name rfemurDummy
    direction -0.625247 -0.75382 0.202044
    length 5.74091
    axis 0 -0 0 xyz
  end
  begin
    id 7
    name rfemur
    direction -0.34202 -0.939693 -1.47013e-008
    length 16.4922
    axis 0 -0 -20 xyz
    dof rx ry rz
    limits( -inf , inf )
( -inf , inf )
( -inf , inf )

  end
  begin
    id 8
    name rtibia
    direction -0.34202 -0.939693 -7.74345e-010
    length 18.2421
    axis 0 -0 -20 xyz
    dof rz ry rx
    limits( -inf , inf )
( -inf , inf )
( -inf , inf )

  end
  begin
    id 9
    name rfoot
    direction -0.124331 -0.341598 0.931586
    length 5.45787
    axis -90 -7.62852e-016 -20 xyz
    dof ry rx rz
    limits( -inf , inf )
( -inf , inf )
( -inf , inf )

  end
  begin
    id 10
    name rtoes
    direction 0 0 0
    length 0
    axis 0 0 0 xyz
    dof rz ry rx
    limits( -inf , inf )
( -inf , inf )
( -inf , inf )

  end
  begin
    id 11
    name lowerbackDummy
    direction 0 0 0
    length 0
    axis 0 -0 0 xyz
  end
  begin
    id 12
    name lowerback
    direction -0.0218484 0.994884 -0.0986304
    length 4.45607
    axis 0 -0 0 xyz
    dof rx ry rz
    limits( -inf , inf )
( -inf , inf )
( -inf , inf )

  end
  begin
    id 13
    name upperback
    direction -0.00973057 0.999717 -0.0217111
    length 4.47449
    axis 0 -0 0 xyz
    dof rx ry rz
    limits( -inf , inf )
( -inf , inf )
( -inf , inf )

  end
  begin
    id 14
    name thorax
    direction -0.000928171 0.999699 0.0245198
    length 4.50973
    axis 0 -0 0 xyz
    dof rx ry rz
    limits( -inf , inf )
( -inf , inf )
( -inf , inf )

  end
  begin
    id 15
    name rclavicle
    direction -0.9009 0.425937 -0.0834055
    length 7.28587
    axis 0 -0 0 xyz
    dof rx ry rz
    limits( -inf , inf )
( -inf , inf )
( -inf , inf )

  end
  begin
    id 16
    name rhumerus
    direction -1 -2.23604e-007 -1.42637e-007
    length 13.5704
    axis 180 30 90 xyz
    dof rx ry rz
    limits( -inf , inf )
( -inf , inf )
( -inf , inf )

  end
  begin
    id 17
    name rradius
    direction -1 5.68281e-008 -4.4952e-007
    length 8.06782
    axis 180 30 90 xyz
    dof rz ry rx
    limits( -inf , inf )
( -inf , inf )
( -inf , inf )

  end
  begin
    id 18
    name rwrist
    direction -1 1.51393e-007 1.38143e-007
    length 4.03391
    axis -90 -90 0 xyz
    dof rz rx ry
    limits( -inf , inf )
( -inf , inf )
( -inf , inf )

  end
  begin
    id 19
    name rthumb
    direction 0 0 0
    length 0
    axis 0 0 0 xyz
    dof ry rx rz
    limits( -inf , inf )
( -inf , inf )
( -inf , inf )

  end
  begin
    id 20
    name rhand
    direction -1 -3.34077e-007 -5.59631e-007
    length 1.29744
    axis -90 -90 0 xyz
    dof ry rx rz
    limits( -inf , inf )
( -inf , inf )
( -inf , inf )

  end
  begin
    id 21
    name rfingers
    direction 0 0 0
    length 0
    axis 0 0 0 xyz
    dof rz ry rx
    limits( -inf , inf )
( -inf , inf )
( -inf , inf )

  end
  begin
    id 22
    name lclavicle
    direction 0.940017 0.332249 -0.0773232
    length 8.29589
    axis 0 -0 0 xyz
    dof rx ry rz
    limits( -inf , inf )
( -inf , inf )
( -inf , inf )

  end
  begin
    id 23
    name lhumerus
    direction 1 7.41158e-008 -1.44768e-008
    length 12.0042
    axis 180 -30 -90 xyz
    dof rx ry rz
    limits( -inf , inf )
( -inf , inf )
( -inf , inf )

  end
  begin
    id 24
    name lradius
    direction 1 -1.32972e-007 3.10821e-007
    length 8.1902
    axis 180 -30 -90 xyz
    dof rz ry rx
    limits( -inf , inf )
( -inf , inf )
( -inf , inf )

  end
  begin
    id 25
    name lwrist
    direction 1 3.08957e-007 4.01394e-007
    length 4.09509
    axis -90 90 0 xyz
    dof rz rx ry
    limits( -inf , inf )
( -inf , inf )
( -inf , inf )

  end
  begin
    id 26
    name lthumb
    direction 0 0 0
    length 0
    axis 0 0 0 xyz
    dof ry rx rz
    limits( -inf , inf )
( -inf , inf )
( -inf , inf )

  end
  begin
    id 27
    name lhand
    direction 1 -1.64125e-007 -6.99514e-007
    length 1.37229
    axis -90 90 0 xyz
    dof ry rx rz
    limits( -inf , inf )
( -inf , inf )
( -inf , inf )

  end
  begin
    id 28
    name lfingers
    direction 0 0 0
    length 0
    axis 0 0 0 xyz
    dof rz ry rx
    limits( -inf , inf )
( -inf , inf )
( -inf , inf )

  end
  begin
    id 29
    name lowerneck
    direction -0.030798 0.998024 0.0547665
    length 3.93918
    axis 0 -0 0 xyz
    dof rx ry rz
    limits( -inf , inf )
( -inf , inf )
( -inf , inf )

  end
  begin
    id 30
    name upperneck
    direction 0.0531588 0.996611 -0.0627736
    length 3.95491
    axis 0 -0 0 xyz
    dof rx ry rz
    limits( -inf , inf )
( -inf , inf )
( -inf , inf )

  end
  begin
    id 31
    name head
    direction 0 0 0
    length 0
    axis 0 0 0 xyz
    dof rx ry rz
    limits( -inf , inf )
( -inf , inf )
( -inf , inf )

  end
:hierarchy
  begin
    root lfemurDummy rfemurDummy lowerbackDummy
    lfemurDummy lfemur
    lfemur ltibia
    ltibia lfoot
    lfoot ltoes
    rfemurDummy rfemur
    rfemur rtibia
    rtibia rfoot
    rfoot rtoes
    lowerbackDummy lowerback
    lowerback upperback
    upperback thorax
    thorax rclavicle lclavicle lowerneck
    rclavicle rhumerus
    rhumerus rradius
    rradius rwrist
    rwrist rthumb rhand
    rhand rfingers
    lclavicle lhumerus
    lhumerus lradius
    lradius lwrist
    lwrist lthumb lhand
    lhand lfingers
    lowerneck upperneck
    upperneck head
  end

:SAMPLES-PER-SECOND 30
:FULLY-SPECIFIED
:DEGREES
73
root  -7.112244734 39.14088752 8.522933299 127.5599976 -70.61499786 -131.2609863
lowerback  2.860290051 11.79769993 -8.482700348
upperback  1.777510047 14.65820026 -11.16930008
thorax  1.188330054 6.983429909 -7.408370018
lowerneck  -1.1602 10.66139984 -1.409459949
upperneck  13.16769981 12.11190033 19.75699997
head  2.686609983 6.578690052 6.458310127
lclavicle  0 -9.442270133e-015 7.951389973e-016
lhumerus  -42.11169815 12.29660034 64.77999878
lradius  8.792891399e-032 -3.419896876e-031 104.4189987
lwrist  0 7.062250077e-031 85.66929626
lhand  -1.496451383e-031 -27.76390076 20.11240005
lfingers  90 7.125020027 -90
lthumb  89.89689403 5.08795885 91.16245106
rclavicle  0 -9.442270133e-015 7.951389973e-016
rhumerus  -1.499549985 23.77589989 -90.68769836
rradius  7.093370604e-032 3.459145122e-031 78.41149902
rwrist  7.062250077e-031 8.827812596e-032 -41.34519958
rhand  -7.920061211e-032 -33.2840004 9.303460121
rfingers  -90 -7.125020027 -90
rthumb  -92.93752616 -24.25625642 -97.11982154
rfemur  4.028210163 7.541419983 17.59989929
rtibia  -0 0 34.37720108
rfoot  -0 -11.6413002 -11.61439991
rtoes  5.373923086 19.29304026 -105.8922705
lfemur  -20.9538002 5.382959843 18.29100037
ltibia  -0 0 51.99599838
lfoot  -0 -0.2655119896 -7.687489986
ltoes  -4.250644065 -19.5611806 -102.515957
74
root  -6.978355618 39.27622217 8.511110741 131.2860107 -69.27700043 -135.1530151
lowerback  2.97329998 11.45240021 -8.274319649
upperback  1.871070027 14.19349957 -11.09980011
thorax  1.220209956 6.749070168 -7.438079834
lowerneck  -1.251989961 11.39019966 -1.928740025
upperneck  13.42230034 13.19880009 18.82990074
head  2.692759991 7.070600033 6.254179955
lclavicle  0 -9.442270133e-015 7.951389973e-016
lhumerus  -39.16659927 13.09440041 63.25979996
lradius  6.79939931e-032 -3.465043395e-031 101.1019974
lwrist  -3.531125038e-031 1.059337512e-030 88.23049927
lhand  -1.496451383e-031 -27.76390076 20.11240005
lfingers  90 7.125020027 -90
lthumb  89.89689403 5.08795885 91.16245106
rclavicle  0 -9.442270133e-015 7.951389973e-016
rhumerus  -3.91704011 25.17449951 -91.24770355
rradius  6.841972014e-032 3.464205281e-031 78.82759857
rwrist  7.062250077e-031 3.531125038e-031 -40.70399857
rhand  -7.920061211e-032 -33.2840004 9.303460121
rfingers  -90 -7.125020027 -90
rthumb  -92.93752616 -24.25625642 -97.11982154
rfemur  2.686650038 8.043589592 17.30509949
rtibia  -0 0 34.39070129
rfoot  -0 -11.56379986 -10.17339993
rtoes  5.373923086 19.29304026 -105.8922705
lfemur  -19.60659981 3.882639885 18.73660088
ltibia  -0 0 52.11009979
lfoot  -0 -0.7329239845 -7.273600101
ltoes  -4.250644065 -19.5611806 -102.515957
75
root  -6.816644744 39.37888859 8.504510864 134.4760132 -68.25099945 -138.2280273
lowerback  3.07517004 10.89019966 -8.341859818
upperback  1.841320038 13.41009998 -11.10990047
thorax  1.05704999 6.351109982 -7.421760082
lowerneck  -1.306049943 12.20730019 -2.144989967
upperneck  13.82619953 14.36219978 17.88229942
head  2.763319969 7.607649803 6.006480217
lclavicle  0 -9.442270133e-015 7.951389973e-016
lhumerus  -36.11169815 13.93410015 61.56560135
lradius  4.964048429e-032 -3.496058676e-031 98.08139801
lwrist  0 1.059337512e-030 90.38950348
lhand  -1.496451383e-031 -27.76390076 20.11240005
lfingers  90 7.125020027 -90
lthumb  89.89689403 5.08795885 91.16245106
rclavicle  0 -9.442270133e-015 7.951389973e-016
rhumerus  -6.23281002 26.60700035 -91.876297
rradius  6.619815666e-032 3.468519056e-031 79.19480133
rwrist  0 2.648343779e-031 -40.25880051
rhand  -7.920061211e-032 -33.2840004 9.303460121
rfingers  -90 -7.125020027 -90
rthumb  -92.93752616 -24.25625642 -97.11982154
rfemur  1.012730002 8.607780457 16.84939957
rtibia  -0 0 34.66550064
rfoot  -0 -11.2567997 -9.268349648
rtoes  5.373923086 19.29304026 -105.8922705
lfemur  -19.08300018 2.096760035 18.76140022
ltibia  -0 0 52.94850159
lfoot  4.415626637e-032 -1.599419951 -6.399310112
ltoes  -4.250644065 -19.5611806 -102.515957
76
root  -6.644355594 39.44555568 8.496266463 137.460022 -67.52500153 -141.0499878
lowerback  3.38180995 10.27880001 -8.611700058
upperback  1.695230007 12.48999977 -11.22539997
thorax  0.6309310198 5.881800175 -7.460569859
lowerneck  -1.200729966 13.0255003 -2.219150066
upperneck  14.20769978 15.49960041 17.1508007
head  2.806610107 8.13146019 5.793039799
lclavicle  0 -9.442270133e-015 7.951389973e-016
lhumerus  -32.99079895 14.59449959 59.69739914
lradius  3.458346965e-032 -3.514148887e-031 95.62049866
lwrist  0 3.531125038e-031 92.07060242
lhand  -1.496451383e-031 -27.76390076 20.11240005
lfingers  90 7.125020027 -90
lthumb  89.89689403 5.08795885 91.16245106
rclavicle  0 -9.442270133e-015 7.951389973e-016
rhumerus  -8.761320114 28.14100075 -92.22180176
rradius  6.207891955e-032 3.476127847e-031 79.87449646
rwrist  0 8.827812596e-032 -40.19039917
rhand  -7.920061211e-032 -33.2840004 9.303460121
rfingers  -90 -7.125020027 -90
rthumb  -92.93752616 -24.25625642 -97.11982154
rfemur  -0.7862499952 9.20318985 16.15690041
rtibia  -0 0 35.25600052
rfoot  -0 -10.69900036 -8.699589729
rtoes  5.373923086 19.29304026 -105.8922705
lfemur  -19.08239937 0.3236939907 18.35440063
ltibia  -0 0 54.46160126
lfoot  8.835303273e-032 -2.359489918 -5.656320095
ltoes  -4.250644065 -19.5611806 -102.515957
77
root  -6.468822449 39.47088887 8.487577513 139.7709961 -66.99299622 -143.3699951
lowerback  4.1040802 9.741780281 -8.666469574
upperback  1.547510028 11.59990025 -11.40779972
thorax  0.03751910105 5.433340073 -7.744490147
lowerneck  -0.9140030146 13.70709991 -2.217420101
upperneck  14.48740005 16.43540001 16.6317997
head  2.803989887 8.554050446 5.616429806
lclavicle  0 -9.442270133e-015 7.951389973e-016
lhumerus  -29.50849915 14.82419968 57.86399841
lradius  2.380984943e-032 -3.52308858e-031 93.86630249
lwrist  0 7.062250077e-031 93.25060272
lhand  -1.496451383e-031 -27.76390076 20.11240005
lfingers  90 7.125020027 -90
lthumb  89.89689403 5.08795885 91.16245106
rclavicle  0 -9.442270133e-015 7.951389973e-016
rhumerus  -11.33839989 29.29920006 -92.32820129
rradius  5.778127312e-032 3.483529314e-031 80.58209991
rwrist  1.412450015e-030 -8.827812596e-032 -40.12749863
rhand  -7.920061211e-032 -33.2840004 9.303460121
rfingers  -90 -7.125020027 -90
rthumb  -92.93752616 -24.25625642 -97.11982154
rfemur  -2.417370081 9.835240364 15.44040012
rtibia  -0 0 36.15930176
rfoot  -0 -10.09589958 -8.169469833
rtoes  5.373923086 19.29304026 -105.8922705
lfemur  -19.37750053 -1.130249977 17.8173008
ltibia  -0 0 56.50400162
lfoot  4.419699822e-032 -2.934000015 -5.448760033
ltoes  -4.250644065 -19.5611806 -102.515957
78
root  -6.288489019 39.4546659 8.473333224 141.2680054 -66.4980011 -144.8619995
lowerback  4.791570187 9.158390045 -8.598629951
upperback  1.524250031 10.69050026 -11.47990036
thorax  -0.4103769958 4.977000237 -7.935210228
lowerneck  -0.7596489787 14.34869957 -2.257200003
upperneck  14.73029995 17.31229973 16.22780037
head  2.808190107 8.954819679 5.487949848
lclavicle  0 -9.442270133e-015 7.951389973e-016
lhumerus  -25.62210083 15.28890038 56.20930099
lradius  1.888419032e-032 -3.526071862e-031 93.06559753
lwrist  -1.765562519e-031 3.531125038e-031 93.59030151
lhand  -1.496451383e-031 -27.76390076 20.11240005
lfingers  90 7.125020027 -90
lthumb  89.89689403 5.08795885 91.16245106
rclavicle  0 -9.442270133e-015 7.951389973e-016
rhumerus  -13.61550045 30.12560081 -92.27300262
rradius  5.40151432e-032 3.489567375e-031 81.2009964
rwrist  7.062250077e-031 4.413906298e-031 -39.90119934
rhand  -7.920061211e-032 -33.2840004 9.303460121
rfingers  -90 -7.125020027 -90
rthumb  -92.93752616 -24.25625642 -97.11982154
rfemur  -4.042109966 10.61740017 14.96150017
rtibia  -0 0 37.34080124
rfoot  -0 -9.609499931 -7.791609764
rtoes  5.373923086 19.29304026 -105.8922705
lfemur  -20.0196991 -2.303119898 17.46080017
ltibia  -0 0 58.86199951
lfoot  4.421770321e-032 -3.417639971 -5.616209984
ltoes  -4.250644065 -19.5611806 -102.515957
